<?xml version="1.0" encoding="utf-8"?>
<!-- Generator: Adobe Illustrator 25.0.1, SVG Export Plug-In . SVG Version: 6.00 Build 0)  -->
<svg version="1.1" xmlns="http://www.w3.org/2000/svg" xmlns:xlink="http://www.w3.org/1999/xlink" x="0px" y="0px"
	 viewBox="0 0 512 512" style="enable-background:new 0 0 512 512;" xml:space="preserve">
<style type="text/css">
	.st0{fill:none;stroke:#565656;stroke-width:15;stroke-linecap:round;stroke-linejoin:round;stroke-miterlimit:10;}
	.st1{fill:none;stroke:#565656;stroke-width:15;stroke-miterlimit:10;}
	.st2{fill:none;stroke:#565656;stroke-width:15;stroke-linecap:round;stroke-miterlimit:10;}
	.st3{fill:none;stroke:#565656;stroke-width:15;stroke-linecap:round;}
	.st4{fill:#565656;}
	.st5{fill:none;stroke:#565656;stroke-width:15;stroke-linecap:round;stroke-linejoin:round;}
	.st6{fill:none;stroke:#565656;stroke-width:15;stroke-linecap:round;stroke-linejoin:round;stroke-dasharray:24.8533,49.7066;}
	
		.st7{fill:none;stroke:#565656;stroke-width:15;stroke-linecap:round;stroke-linejoin:round;stroke-dasharray:24.8533,49.7066,24.8533,49.7066;}
	.st8{fill:#BABABA;}
	.st9{fill:none;stroke:#9013FE;stroke-width:15;stroke-linecap:round;}
	.st10{fill:none;stroke:#565656;stroke-width:15;stroke-linecap:round;stroke-miterlimit:10;stroke-dasharray:32.1931,42.9241;}
	
		.st11{fill:none;stroke:#565656;stroke-width:15;stroke-linecap:round;stroke-miterlimit:10;stroke-dasharray:32.1931,42.9241,32.1931,42.9241;}
	.st12{fill:none;stroke:#565656;stroke-width:15;stroke-linejoin:round;stroke-miterlimit:10;}
	.st13{fill:#FFFFFF;}
	.st14{fill:url(#SVGID_1_);}
	.st15{fill:url(#SVGID_2_);}
	.st16{fill:url(#SVGID_3_);}
	.st17{fill:url(#SVGID_4_);}
	.st18{fill:url(#SVGID_5_);}
	.st19{fill:url(#SVGID_6_);}
	.st20{fill:url(#SVGID_7_);}
	.st21{fill:url(#SVGID_8_);}
	.st22{fill:url(#SVGID_9_);}
	.st23{fill:url(#SVGID_10_);}
	.st24{fill:url(#SVGID_11_);}
	.st25{fill:url(#SVGID_12_);}
	.st26{fill:url(#SVGID_13_);}
	.st27{fill:url(#SVGID_14_);}
	.st28{fill:url(#SVGID_15_);}
	.st29{fill:url(#SVGID_16_);}
	.st30{fill:url(#SVGID_17_);}
	.st31{fill:url(#SVGID_18_);}
	.st32{fill:url(#SVGID_19_);}
	.st33{fill:url(#SVGID_20_);}
	.st34{fill:url(#SVGID_21_);}
	.st35{fill:url(#SVGID_22_);}
	.st36{fill:url(#SVGID_23_);}
	.st37{fill:url(#SVGID_24_);}
	.st38{fill:url(#SVGID_25_);}
	.st39{fill:url(#SVGID_26_);}
	.st40{fill:url(#SVGID_27_);}
	.st41{fill:url(#SVGID_28_);}
	.st42{fill:url(#SVGID_29_);}
	.st43{fill:url(#SVGID_30_);}
	.st44{fill:url(#SVGID_31_);}
	.st45{fill:url(#SVGID_32_);}
	.st46{fill:url(#SVGID_33_);}
	.st47{fill:url(#SVGID_34_);}
	.st48{fill:url(#SVGID_35_);}
	.st49{fill:url(#SVGID_36_);}
	.st50{fill:url(#SVGID_37_);}
	.st51{fill:url(#SVGID_38_);}
</style>
<g id="Layer_1">
	<g>
		<linearGradient id="SVGID_1_" gradientUnits="userSpaceOnUse" x1="72.1145" y1="323.6317" x2="429.2887" y2="323.6317">
			<stop  offset="0" style="stop-color:#ED1C24"/>
			<stop  offset="1" style="stop-color:#FF00FF"/>
		</linearGradient>
		<path class="st14" d="M114.2,502.6c-0.1,0-0.2-0.1-0.3-0.1c-0.5-0.2-1-0.4-1.7-0.5c-19.9-3.8-32.5-15.1-38.5-34.7
			c-0.5-1.5-0.8-3.1-1.1-4.7c-0.1-0.7-0.3-1.4-0.5-2.1V218.7c0,0,0-0.1,0.1-0.1c0.2-0.4,0.4-0.9,0.5-1.5
			c4.9-25.4,23.2-40.5,49.1-40.5h13v-2c0-1.3,0-2.5-0.1-3.7c-0.1-2.4-0.1-4.8,0.1-7c0.9-8.8,5.5-14.7,14-18c0.7-0.3,1.5-0.6,2.2-0.9
			l0.6-0.3h7.2c0.2,0.1,0.4,0.3,0.7,0.4c12.2,4.1,16.8,10.5,16.8,23.4c0,1.3,0,7.8,0,7.8h21.8v-2c0-1.2,0-2.3-0.1-3.4
			c-0.1-2.4-0.1-4.6,0.1-6.8c0.8-9,5.4-14.9,14.1-18.3c0.7-0.3,1.5-0.6,2.2-0.9l0.6-0.3h7.2c0.2,0.1,0.4,0.3,0.7,0.4
			c12.2,4.1,16.8,10.5,16.8,23.4l0,7.8h21.8v-2c0-1.2,0-2.3-0.1-3.4c-0.1-2.4-0.1-4.6,0.1-6.8c0.8-9,5.4-14.9,14.1-18.3
			c0.7-0.3,1.5-0.6,2.2-0.9l0.6-0.3h7.2c0.2,0.1,0.4,0.3,0.7,0.4c12.2,4.1,16.8,10.5,16.8,23.4c0,1.3,0,7.8,0,7.8h21.8v-2
			c0-1.2,0-2.3-0.1-3.4c-0.1-2.4-0.1-4.6,0.1-6.8c0.8-9,5.4-14.9,14.1-18.3c0.7-0.3,1.5-0.6,2.2-0.9l0.6-0.3h7.4
			c0.2,0.2,0.6,0.4,0.9,0.5c11.3,3.5,16.3,10.3,16.5,22c0,1.6,0,3.1,0,4.8l0,4.5l10.4,0c1.6,0,3.1,0,4.6,0
			c26.5,0.2,47.4,21,47.4,47.4c0.1,69.9,0.1,145.6,0,231.3c0,21.3-14.4,40.1-35.1,45.7c-1.6,0.4-3.2,0.8-4.8,1.2
			c-0.7,0.2-1.4,0.3-2.1,0.5H114.2z M121.4,186.6c-23.4,0-39.2,15.8-39.2,39.2c0,75.7,0,151.4,0,227.2c0,23.5,15.8,39.4,39.4,39.4
			c43,0,86,0,129.1,0c43,0,86,0,129.1,0c23.6,0,39.4-15.8,39.4-39.4c0-20.7,0-41.3,0-62l0-64.7c0-33.9,0-67.7,0-101.6
			c0-18.2-11.4-33.1-28.3-36.9c-4.8-1.1-9.7-1.2-14.8-1.4c-2.3-0.1-4.8-0.2-7.2-0.3l-2.1-0.2v2.1c0,1.5,0,2.9,0.1,4.2
			c0.1,2.6,0.1,4.9-0.1,7.2c-0.6,7.4-4.3,12.9-10.9,16.4c-3.1,1.7-6.5,2.5-9.9,2.5c-10.9,0-19.8-8.3-20.7-19.3
			c-0.2-2.3-0.1-4.5-0.1-6.9c0-1.1,0-2.2,0-3.3v-2h-22v2c0,1.2,0,2.4,0.1,3.5c0.1,2.5,0.1,4.8-0.1,7.1c-0.6,7.4-4.3,12.9-10.9,16.4
			c-3.1,1.7-6.5,2.5-9.9,2.5c-10.9,0-19.8-8.3-20.7-19.4c-0.2-2.3-0.1-4.6-0.1-6.9c0-1.1,0-2.2,0-3.3v-2h-22v2c0,1.2,0,2.4,0,3.5
			c0,2.5,0.1,4.8-0.1,7.1c-0.4,5.8-3,10.6-7.6,14.3c-4.1,3.2-8.4,4.8-12.8,4.8c-2.7,0-5.6-0.6-8.4-1.8c-7.7-3.3-11.9-9.3-12.6-17.6
			c-0.2-2.3-0.1-4.6-0.1-6.9c0-1.1,0-2.2,0-3.3v-2h-22v2c0,1.2,0,2.4,0.1,3.5c0.1,2.5,0.1,4.8-0.1,7.1c-0.7,7.5-4.4,13.1-11.2,16.6
			c-3,1.6-6.2,2.4-9.6,2.4c-10.7,0-19.8-8.4-20.7-19c-0.2-2.3-0.1-4.7-0.1-7.2c0-1.2,0.1-2.4,0.1-3.6v-2l-9.8,0L121.4,186.6z
			 M155.5,154.9c-6.3,0-10.6,4.7-10.8,11.7c-0.1,3.4,0,6.8,0,10.1c0,1.6,0,3.1,0,4.7c0,1.4,0,2.7,0,4.1c0,3.4,0,6.9,0.1,10.4
			c0.1,2.4,0.4,4.3,1,5.8c1.5,3.9,5.5,6.5,9.8,6.5c0,0,0,0,0,0c0.6,0,1.3-0.1,1.9-0.2c5.3-1,8.7-5.2,8.8-10.7
			c0.1-8.9,0.1-18.3,0-30.7C166.2,159.7,161.8,154.9,155.5,154.9L155.5,154.9z M218.9,154.9c-6.2,0-10.6,4.7-10.7,11.5
			c-0.1,9.8-0.1,20,0,30.4c0.1,6.7,4.4,11.5,10.6,11.6l0.2,0c6.2,0,10.6-4.8,10.8-11.6c0.1-3.6,0.1-7.3,0-10.8c0-1.5,0-2.9,0-4.4
			c0-1.5,0-3.1,0-4.6c0-3.5,0-7,0-10.6C229.5,159.5,225.1,154.9,218.9,154.9L218.9,154.9L218.9,154.9z M282.3,154.9
			c-6.3,0.1-10.6,4.9-10.6,11.9c-0.1,10.4-0.1,20.1,0,29.7c0.1,7.1,4.4,11.8,10.7,11.8c6.4,0,10.7-4.7,10.8-11.7
			c0.1-3.4,0.1-6.9,0-10.2c0-1.5,0-3.1,0-4.6c0-1.5,0-3,0-4.6c0-3.4,0-6.9,0-10.3c-0.1-7.2-4.4-12-10.8-12L282.3,154.9z
			 M345.8,154.9c-6.3,0.1-10.6,4.9-10.7,11.9c-0.1,10-0.1,20,0,29.7c0.1,7,4.4,11.8,10.7,11.9c0,0,0,0,0,0c6.3,0,10.7-4.8,10.9-11.7
			c0.1-3.4,0.1-6.9,0-10.2c0-1.6,0-3.1,0-4.7c0-1.5,0-3,0-4.5c0-3.4,0-6.9,0-10.3c-0.1-7.2-4.4-12-10.8-12L345.8,154.9z"/>
		<linearGradient id="SVGID_2_" gradientUnits="userSpaceOnUse" x1="103.8555" y1="355.4325" x2="429.4214" y2="355.4325">
			<stop  offset="0" style="stop-color:#ED1C24"/>
			<stop  offset="1" style="stop-color:#FF00FF"/>
		</linearGradient>
		<path class="st15" d="M122,470.8c-12.2,0-18.1-6-18.1-18.3c0-64.8,0-129.6,0-194.3c0-11.9,6.1-18,18.1-18l17.9,0
			c4.7,0,9.5,0,14.2,0c1.9,0,6.4,0.5,6.5,5c0,1.4-0.4,2.5-1.2,3.4c-1.1,1.1-3,1.8-5.3,1.8c-3.7,0-7.4,0-11,0l-12.8,0
			c-2.9,0-5.7,0-8.6,0c-5.5,0-7.5,1.9-7.5,7.3c0,65.3,0,130.5,0,195.8c0,5.4,2,7.3,7.5,7.3c43.1,0,86.2,0,129.2,0s86.2,0,129.2,0
			c5.6,0,7.5-1.9,7.5-7.7c0-64.9,0-129.8,0-194.7c0-6.3-1.7-8-7.9-8l-157.6,0c-3.3,0-5.6-0.7-6.8-1.9c-0.8-0.8-1.1-1.9-1.1-3.3
			c0-1.5,0.1-5,7.9-5l158,0c11.4,0,17.7,6.3,17.7,17.6c0,65.1,0,130.3,0,195.4c0,11.3-6.3,17.6-17.8,17.6l-58.9,0L122,470.8z"/>
		<linearGradient id="SVGID_3_" gradientUnits="userSpaceOnUse" x1="73.5628" y1="355.6557" x2="429.5467" y2="355.6557">
			<stop  offset="0" style="stop-color:#ED1C24"/>
			<stop  offset="1" style="stop-color:#FF00FF"/>
		</linearGradient>
		<path class="st16" d="M283.7,417.4c-0.6-0.2-1.2-0.4-1.9-0.6c-1.6-0.5-3.1-0.9-4.4-1.6c-8.7-4.1-15.9-7.7-22.7-11.1
			c-1.3-0.6-2.5-1-3.6-1c-1.2,0-2.4,0.3-3.7,1c-3.6,1.7-7.2,3.5-10.7,5.1c-4.1,1.9-8.3,3.9-12.4,6c-2.4,1.2-4.5,1.8-6.5,1.8
			c-2.2,0-4.3-0.7-6.3-2.2c-3.7-2.8-5.1-6.7-4.2-12.2c1.3-7.6,2.4-15.9,3.5-25.2c0.2-1.9-0.6-4.3-2-5.9c-5.4-5.9-11.1-12-18.2-19.3
			c-3.8-3.9-4.8-7.8-3.4-12.1c1.4-4.3,4.6-6.8,9.6-7.6c9.6-1.6,18-3.1,25.7-4.6c1.9-0.4,4-1.9,5-3.6c4.4-7.8,8.6-15.6,12.9-23.6
			c2.4-4.5,5.8-6.7,10.2-6.7c4.6,0,7.9,2.2,10.3,6.8c1.5,2.8,2.9,5.6,4.4,8.4c2.5,4.6,5,9.3,7.4,14.1c1.7,3.4,4.2,4.2,6.5,4.6
			c5.1,0.9,10.3,1.9,15.3,2.8c3.6,0.7,7.1,1.3,10.7,2c4.6,0.8,7.5,3.3,8.9,7.5c1.4,4.3,0.4,8.1-3,11.6c-1.6,1.7-3.2,3.4-4.9,5
			c-4.4,4.6-9,9.3-13.5,14.1c-1.3,1.4-2.2,3.9-2,5.8c0.7,6.1,1.5,12.2,2.3,18.2c0.4,3,0.8,6.1,1.2,9.1c0.4,3.4-0.5,6.7-2.6,9.2
			C289.8,415.6,286.9,417.1,283.7,417.4z M248.8,306.4c-1.4,2.6-2.8,5.1-4.2,7.6c-3.4,6.2-6.6,12-9.7,18c-1.7,3.3-3.8,4.8-7.4,5.4
			c-6.5,1-12.9,2.1-19.6,3.4c-2.8,0.5-5.6,1-8.4,1.5l-3.6,0.6l2.4,2.7l1.1,1.2c0.6,0.7,1.2,1.3,1.7,1.8l4.1,4.3
			c4.7,5,9.4,10,14.1,14.9c1.8,1.9,2.5,3.8,2,6.3c-0.7,4-1.2,8.1-1.8,12c-0.2,1.1-0.3,2.3-0.5,3.4c-0.4,3.1-0.8,6.2-1.2,9.4
			l-1.1,8.1l3.2-1.4c0.6-0.3,1.1-0.5,1.5-0.7c0.9-0.4,1.6-0.7,2.3-1c2-0.9,3.9-1.9,5.9-2.8c5.8-2.7,11.8-5.6,17.6-8.4
			c1.3-0.6,2.4-0.9,3.6-0.9c1.2,0,2.4,0.3,3.7,1c6.2,3.1,12.5,6.2,18.6,9.2l4.4,2.2c0.7,0.3,1.3,0.6,2.1,0.9
			c0.4,0.2,0.8,0.3,1.3,0.5l3.2,1.3l-3.2-24.9c-0.2-1.8-0.4-3.3-0.6-4.6c-0.5-3.9-0.8-6.1-0.5-7.4c0.3-1.2,1.3-2.2,3.8-4.7
			c1-1,2.3-2.3,3.8-3.9c3.3-3.6,6.7-7,10.2-10.7c1.6-1.6,3.2-3.3,4.8-5l2.4-2.5l-3.4-0.8c-0.5-0.1-0.9-0.2-1.4-0.3
			c-0.8-0.2-1.5-0.4-2.3-0.5l-5-0.9c-7.1-1.3-14.4-2.7-21.6-4c-2.4-0.4-4-1.6-5.1-3.7c-3.4-6.4-6.8-13-10.2-19.3l-1.9-3.5
			c-0.4-0.8-0.8-1.5-1.3-2.3c-0.3-0.4-0.5-0.9-0.8-1.4l-1.8-3L248.8,306.4z"/>
		<linearGradient id="SVGID_4_" gradientUnits="userSpaceOnUse" x1="75.2379" y1="245.1825" x2="429.3416" y2="245.1825">
			<stop  offset="0" style="stop-color:#ED1C24"/>
			<stop  offset="1" style="stop-color:#FF00FF"/>
		</linearGradient>
		<path class="st17" d="M187.2,250.2c-1.3,0-2.6-0.6-3.6-1.5c-1-1-1.5-2.3-1.4-3.6c0.1-2.7,2.4-4.9,5-4.9c1.3,0,2.6,0.6,3.6,1.5
			c1,1,1.5,2.3,1.4,3.6C192.2,248,189.9,250.2,187.2,250.2L187.2,250.2z"/>
	</g>
	
		<linearGradient id="SVGID_5_" gradientUnits="userSpaceOnUse" x1="129.9075" y1="-1980.9606" x2="392.2624" y2="-1980.9606" gradientTransform="matrix(1 0 0 -1 0 -1915.5173)">
		<stop  offset="0" style="stop-color:#ED1C24"/>
		<stop  offset="1" style="stop-color:#FF00FF"/>
	</linearGradient>
	<path class="st18" d="M364.5,55.6c0.3-0.3,0.6-0.6,0.9-0.9h26.8v-4.8h-8.5c5.8-6.1,8.3-9.8,8.3-14.9c0-4.4-1.6-8.1-4.5-10.8
		s-7-4.1-11.7-4.1c-7.6,0-13.3,3.4-16.1,9.2c-9.7-10.8-23.6-17-39.2-17c-14.4,0-27.7,5.4-37.3,14.9c-6.6-6.8-15-11.2-24.4-13.4
		c-1.9-0.6-4.1-0.9-6.2-1.2v29.6c2.2,0.6,4.3,1.6,6.2,2.9c6,4.2,9.1,11.4,9.5,18.7c0,0.5,0,1.1,0,1.6c0,0.5,0,1,0,1.6
		c-0.6,11.1-7.7,22.5-22.3,22.5c-14.2,0-21.2-10.8-22.1-21.6c-0.1-0.8-0.1-1.7-0.1-2.5c0-0.8,0-1.7,0.1-2.5c0.6-7,3.7-13.9,9.6-17.9
		c1.8-1.4,3.9-2.4,6.2-3v-6.3c-2.1,0.4-4.2,1.1-6.2,2.1c-5.1,2.5-9,6.3-11.7,11c-1.8-6.5-4.7-12.3-8.6-17.2
		c5.4-5.5,12.3-9.4,20.3-11.5c1.9-0.4,4-0.9,6.2-1v-6.3c-2.2,0.3-4.3,0.6-6.2,1c-9.4,2.1-17.8,6.7-24.4,13.3
		c-9.7-9.2-23.8-14.4-41.1-14.4h-38v83h38c12.9,0,22.9-5.3,28-14.4c1.8,6.6,4.8,12.7,9,18.1c-8.5,8.3-21.1,12.8-37,12.8h-38v6.4h38
		c17.4,0,31.5-5.1,41.2-14.4c9.5,9.5,22.7,14.6,36.9,14.6c14.6,0,27.7-5.2,37.3-14.9c9.5,9.7,22.8,15,37.2,15
		c16.6,0,31.6-7.2,41.2-19.6c0.2-0.2,0.3-0.4,0.4-0.6L364,96l-5.1-3.4c-1.2,1.6-2.5,3.2-3.8,4.7v0.1c-5.3,6.1-12.3,10.5-20,12.8
		c-4.7,1.4-9.6,2.1-14.6,2.1c-13.4,0-24.9-5-33.1-13.4c4-5.2,6.9-11.1,8.6-17.4c4.5,8.2,12.8,14.3,24.5,14.3c3.2,0,6.3-0.6,9.3-1.5
		c3.8-1.2,7.2-3.2,10.1-6l0.6-0.6c1.5-1.4,2.8-3,4-4.7l-5.3-3.5l-0.3,0.3l-1.5,2.1c-0.1,0.3-0.4,0.4-0.6,0.7
		c-2.5,2.8-5.6,4.9-9.1,5.9c-2.3,0.8-4.8,1.2-7.2,1.2c-15.3,0-22.2-12.6-22.2-24.3s6.9-24.1,22.2-24.1c9,0,14.1,4.1,16.9,7.6
		l1.8,2.2L360.7,37l12.6,3l0.1-2.9v0c0-1.6,0.9-1.6,1.3-1.6c0.7,0,1.1,0.3,1.1,1c0,0.1-0.3,1.4-4.8,6c-4,4.2-8.7,8.7-11.2,11.1
		l-0.7,0.7v11.1h33.2v-4.8h-28.5v-4.3C364,56.1,364.3,55.8,364.5,55.6z M258.8,37.9V20.1c8,2.1,14.9,6.1,20.4,11.8
		c-3.9,5.2-6.9,11.1-8.7,17.4C267.9,44.4,264,40.4,258.8,37.9z M167.9,89.1h-7.1V41.9h7.1c15.9,0,25.4,8.8,25.4,23.5
		C193.4,80.2,183.8,89.1,167.9,89.1L167.9,89.1z M340.4,42.9c-5-5-11.9-7.8-19.9-7.8c-11.7,0-20,6-24.5,14.2
		c-2.4,4.4-3.7,9.4-4,14.5c0,0.6,0,1.1,0,1.7c0,0.6,0,1.1,0,1.6c-0.3,10.4-3.4,19.6-8.7,27c-1.2,1.7-2.6,3.4-4.1,4.9
		c-8.2,8.4-19.7,13.4-33.2,13.4c-13.2,0-24.6-4.8-32.7-13c-1.5-1.5-2.9-3.2-4.2-4.9c-5.7-7.8-9.2-17.7-9.2-29c0-5.9-1.5-11.3-4-15.7
		c-5.1-9-15-14.3-28-14.3h-13.6v53.6h-18V18.9h31.6c15.8,0,28.4,4.5,36.9,12.8c1.5,1.5,2.9,3.1,4.2,4.7c5.2,7,8.2,16,8.5,26.7
		c0,0.7,0,1.5,0,2.2s0,1.5,0,2.3c0.3,5.1,1.8,10,4.3,14.4c4.6,7.9,12.7,13.7,24.2,13.7c11.7,0,20-6,24.5-14.3
		c2.4-4.4,3.8-9.4,4-14.4c0-0.6,0-1.1,0-1.7s0-1.1,0-1.6c0.3-10.4,3.4-19.6,8.8-27c1.2-1.7,2.6-3.3,4.1-4.9
		c8.2-8.4,19.8-13.4,33.2-13.4c14,0,26,5.3,34.6,14.9L340.4,42.9z M374.4,45.8c4.1-4.3,6.1-6.9,6.1-9.3c0-3.3-2.4-5.8-5.8-5.8
		c-2.5,0-4.5,1.3-5.4,3.4l-5.8-1.4c1-3,2.8-5.2,5.5-6.5c2.6-1.3,5.4-1.5,6.8-1.5c3.5,0,6.5,1,8.5,2.8c2,1.8,3.1,4.4,3.1,7.4
		c0,4.4-3.1,7.8-10.2,14.9h-6.8C371.7,48.5,373.1,47.1,374.4,45.8L374.4,45.8z"/>
</g>
<g id="Einstellungen">
</g>
</svg>
