<?xml version="1.0" encoding="utf-8"?>
<!-- Generator: Adobe Illustrator 25.0.0, SVG Export Plug-In . SVG Version: 6.00 Build 0)  -->
<svg version="1.1" id="Ebene_1" xmlns="http://www.w3.org/2000/svg" xmlns:xlink="http://www.w3.org/1999/xlink" x="0px" y="0px"
	 viewBox="0 0 282.1 340.2" style="enable-background:new 0 0 282.1 340.2;" xml:space="preserve">
<g>
	<path d="M31.5,334.8c-4.8-2.1-10-3.5-14.2-6.3C8,322,4,312.6,3.9,301.4c0-19.5,0-39,0-58.5c0-30.7-0.1-61.5,0-92.2
		c0.1-13.5,6-23.8,18.2-29.7c4-1.9,8.8-3.2,13.2-3.3c18.9-0.4,37.9-0.2,56.9-0.2c4.6,0,7.3,2.4,7.4,6.2c0.1,4-2.7,6.5-7.5,6.5
		c-18,0-36,0-54,0c-13.7,0-21.5,7.8-21.5,21.5c0,49.5,0,99,0,148.4c0,13.9,7.8,21.6,21.7,21.6c66.5,0,133,0,199.5,0
		c13.9,0,21.6-7.8,21.6-21.7c0-49.6,0-99.2,0-148.7c0-10.7-5.4-18.3-14.9-20.5c-2.1-0.5-4.2-0.6-6.4-0.6c-15.5,0-31.1,0-46.6,0
		c-1.4,0-2.8-0.1-4.1-0.4c-3-0.8-4.7-3.2-4.6-6.1c0.1-3,1.7-5,4.6-5.8c1.2-0.3,2.5-0.4,3.8-0.4c15.8,0,31.7,0,47.5,0
		c19.4,0,33.4,14,33.4,33.4c0,49.8-0.1,99.6,0.1,149.4c0.1,16.5-10.1,30.8-26.8,33.9c-0.3,0.1-0.5,0.3-0.8,0.5
		C173.7,334.8,102.6,334.8,31.5,334.8z"/>
	<path d="M145.3,219.8c6.9-7,13.9-14,20.8-20.9c7.5-7.5,15-15,22.5-22.5c1-1,2-2,3.2-2.7c2.5-1.5,5-1,7.1,1c2.2,2,2.9,4.6,1.4,7.3
		c-0.7,1.3-1.8,2.4-2.8,3.4c-17.7,17.7-35.4,35.4-53.1,53.2c-4.8,4.8-7.5,4.8-12.4-0.1c-17.6-17.6-35.3-35.3-52.9-52.9
		c-4.4-4.4-4.9-7.7-1.7-10.7c3.1-3,6.4-2.4,10.8,1.9c13.6,13.5,27.1,27.1,40.7,40.6c0.8,0.8,1.7,1.6,3.1,2.9c0-1.9,0-3.1,0-4.4
		c0-53.9,0-107.9,0-161.8c0-1,0-1.9,0-2.9c0.2-4.3,2.7-6.9,6.5-6.9c3.6,0,6,2.6,6.3,6.7c0.1,1,0,1.9,0,2.9c0,53.9,0,107.9,0,161.8
		c0,1.2,0,2.5,0,3.7C144.8,219.6,145,219.7,145.3,219.8z"/>
	<path d="M144.7,17c-0.1,2-0.1,4.1-0.4,6.1c-0.6,3.1-3.3,5.1-6.2,5.1c-2.8,0-5.6-2-5.9-4.9c-0.4-4.1-0.4-8.3,0-12.4
		c0.3-2.9,3.1-4.9,5.9-4.9c2.9,0,5.6,2,6.2,5.1C144.6,12.9,144.5,14.9,144.7,17z"/>
</g>
</svg>
