<?xml version="1.0" encoding="utf-8"?>
<!-- Generator: Adobe Illustrator 25.0.1, SVG Export Plug-In . SVG Version: 6.00 Build 0)  -->
<svg version="1.1" xmlns="http://www.w3.org/2000/svg" xmlns:xlink="http://www.w3.org/1999/xlink" x="0px" y="0px"
	 viewBox="0 0 512 512" style="enable-background:new 0 0 512 512;" xml:space="preserve">
<style type="text/css">
	.st0{fill:none;stroke:#565656;stroke-width:15;stroke-linecap:round;stroke-linejoin:round;stroke-miterlimit:10;}
	.st1{fill:none;stroke:#565656;stroke-width:15;stroke-miterlimit:10;}
	.st2{fill:none;stroke:#565656;stroke-width:15;stroke-linecap:round;stroke-miterlimit:10;}
	.st3{fill:none;stroke:#565656;stroke-width:15;stroke-linecap:round;}
	.st4{fill:#565656;}
	.st5{fill:none;stroke:#565656;stroke-width:15;stroke-linecap:round;stroke-linejoin:round;}
	.st6{fill:none;stroke:#565656;stroke-width:15;stroke-linecap:round;stroke-linejoin:round;stroke-dasharray:24.8533,49.7066;}
	
		.st7{fill:none;stroke:#565656;stroke-width:15;stroke-linecap:round;stroke-linejoin:round;stroke-dasharray:24.8533,49.7066,24.8533,49.7066;}
	.st8{fill:#BABABA;}
	.st9{fill:none;stroke:#9013FE;stroke-width:15;stroke-linecap:round;}
	.st10{fill:none;stroke:#565656;stroke-width:15;stroke-linecap:round;stroke-miterlimit:10;stroke-dasharray:32.1931,42.9241;}
	
		.st11{fill:none;stroke:#565656;stroke-width:15;stroke-linecap:round;stroke-miterlimit:10;stroke-dasharray:32.1931,42.9241,32.1931,42.9241;}
	.st12{fill:none;stroke:#565656;stroke-width:15;stroke-linejoin:round;stroke-miterlimit:10;}
	.st13{fill:#FFFFFF;}
	.st14{fill:url(#SVGID_1_);}
	.st15{fill:url(#SVGID_2_);}
	.st16{fill:url(#SVGID_3_);}
	.st17{fill:url(#SVGID_4_);}
	.st18{fill:url(#SVGID_5_);}
	.st19{fill:url(#SVGID_6_);}
	.st20{fill:url(#SVGID_7_);}
	.st21{fill:url(#SVGID_8_);}
	.st22{fill:url(#SVGID_9_);}
	.st23{fill:url(#SVGID_10_);}
	.st24{fill:url(#SVGID_11_);}
	.st25{fill:url(#SVGID_12_);}
	.st26{fill:url(#SVGID_13_);}
	.st27{fill:url(#SVGID_14_);}
	.st28{fill:url(#SVGID_15_);}
	.st29{fill:url(#SVGID_16_);}
	.st30{fill:url(#SVGID_17_);}
	.st31{fill:url(#SVGID_18_);}
	.st32{fill:url(#SVGID_19_);}
	.st33{fill:url(#SVGID_20_);}
	.st34{fill:url(#SVGID_21_);}
	.st35{fill:url(#SVGID_22_);}
	.st36{fill:url(#SVGID_23_);}
	.st37{fill:url(#SVGID_24_);}
	.st38{fill:url(#SVGID_25_);}
</style>
<g id="Layer_1">
	
		<linearGradient id="SVGID_1_" gradientUnits="userSpaceOnUse" x1="129.9075" y1="-1980.9606" x2="392.2624" y2="-1980.9606" gradientTransform="matrix(1 0 0 -1 0 -1915.5173)">
		<stop  offset="0" style="stop-color:#ED1C24"/>
		<stop  offset="1" style="stop-color:#FF00FF"/>
	</linearGradient>
	<path class="st14" d="M364.5,55.6c0.3-0.3,0.6-0.6,0.9-0.9h26.8v-4.8h-8.5c5.8-6.1,8.3-9.8,8.3-14.9c0-4.4-1.6-8.1-4.5-10.8
		s-7-4.1-11.7-4.1c-7.6,0-13.3,3.4-16.1,9.2c-9.7-10.8-23.6-17-39.2-17c-14.4,0-27.7,5.4-37.3,14.9c-6.6-6.8-15-11.2-24.4-13.4
		c-1.9-0.6-4.1-0.9-6.2-1.2v29.6c2.2,0.6,4.3,1.6,6.2,2.9c6,4.2,9.1,11.4,9.5,18.7c0,0.5,0,1.1,0,1.6c0,0.5,0,1,0,1.6
		c-0.6,11.1-7.7,22.5-22.3,22.5c-14.2,0-21.2-10.8-22.1-21.6c-0.1-0.8-0.1-1.7-0.1-2.5c0-0.8,0-1.7,0.1-2.5c0.6-7,3.7-13.9,9.6-17.9
		c1.8-1.4,3.9-2.4,6.2-3v-6.3c-2.1,0.4-4.2,1.1-6.2,2.1c-5.1,2.5-9,6.3-11.7,11c-1.8-6.5-4.7-12.3-8.6-17.2
		c5.4-5.5,12.3-9.4,20.3-11.5c1.9-0.4,4-0.9,6.2-1v-6.3c-2.2,0.3-4.3,0.6-6.2,1c-9.4,2.1-17.8,6.7-24.4,13.3
		c-9.7-9.2-23.8-14.4-41.1-14.4h-38v83h38c12.9,0,22.9-5.3,28-14.4c1.8,6.6,4.8,12.7,9,18.1c-8.5,8.3-21.1,12.8-37,12.8h-38v6.4h38
		c17.4,0,31.5-5.1,41.2-14.4c9.5,9.5,22.7,14.6,36.9,14.6c14.6,0,27.7-5.2,37.3-14.9c9.5,9.7,22.8,15,37.2,15
		c16.6,0,31.6-7.2,41.2-19.6c0.2-0.2,0.3-0.4,0.4-0.6L364,96l-5.1-3.4c-1.2,1.6-2.5,3.2-3.8,4.7v0.1c-5.3,6.1-12.3,10.5-20,12.8
		c-4.7,1.4-9.6,2.1-14.6,2.1c-13.4,0-24.9-5-33.1-13.4c4-5.2,6.9-11.1,8.6-17.4c4.5,8.2,12.8,14.3,24.5,14.3c3.2,0,6.3-0.6,9.3-1.5
		c3.8-1.2,7.2-3.2,10.1-6l0.6-0.6c1.5-1.4,2.8-3,4-4.7l-5.3-3.5l-0.3,0.3l-1.5,2.1c-0.1,0.3-0.4,0.4-0.6,0.7
		c-2.5,2.8-5.6,4.9-9.1,5.9c-2.3,0.8-4.8,1.2-7.2,1.2c-15.3,0-22.2-12.6-22.2-24.3s6.9-24.1,22.2-24.1c9,0,14.1,4.1,16.9,7.6
		l1.8,2.2L360.7,37l12.6,3l0.1-2.9v0c0-1.6,0.9-1.6,1.3-1.6c0.7,0,1.1,0.3,1.1,1c0,0.1-0.3,1.4-4.8,6c-4,4.2-8.7,8.7-11.2,11.1
		l-0.7,0.7v11.1h33.2v-4.8h-28.5v-4.3C364,56.1,364.3,55.8,364.5,55.6z M258.8,37.9V20.1c8,2.1,14.9,6.1,20.4,11.8
		c-3.9,5.2-6.9,11.1-8.7,17.4C267.9,44.4,264,40.4,258.8,37.9z M167.9,89.1h-7.1V41.9h7.1c15.9,0,25.4,8.8,25.4,23.5
		C193.4,80.2,183.8,89.1,167.9,89.1L167.9,89.1z M340.4,42.9c-5-5-11.9-7.8-19.9-7.8c-11.7,0-20,6-24.5,14.2
		c-2.4,4.4-3.7,9.4-4,14.5c0,0.6,0,1.1,0,1.7c0,0.6,0,1.1,0,1.6c-0.3,10.4-3.4,19.6-8.7,27c-1.2,1.7-2.6,3.4-4.1,4.9
		c-8.2,8.4-19.7,13.4-33.2,13.4c-13.2,0-24.6-4.8-32.7-13c-1.5-1.5-2.9-3.2-4.2-4.9c-5.7-7.8-9.2-17.7-9.2-29c0-5.9-1.5-11.3-4-15.7
		c-5.1-9-15-14.3-28-14.3h-13.6v53.6h-18V18.9h31.6c15.8,0,28.4,4.5,36.9,12.8c1.5,1.5,2.9,3.1,4.2,4.7c5.2,7,8.2,16,8.5,26.7
		c0,0.7,0,1.5,0,2.2s0,1.5,0,2.3c0.3,5.1,1.8,10,4.3,14.4c4.6,7.9,12.7,13.7,24.2,13.7c11.7,0,20-6,24.5-14.3
		c2.4-4.4,3.8-9.4,4-14.4c0-0.6,0-1.1,0-1.7s0-1.1,0-1.6c0.3-10.4,3.4-19.6,8.8-27c1.2-1.7,2.6-3.3,4.1-4.9
		c8.2-8.4,19.8-13.4,33.2-13.4c14,0,26,5.3,34.6,14.9L340.4,42.9z M374.4,45.8c4.1-4.3,6.1-6.9,6.1-9.3c0-3.3-2.4-5.8-5.8-5.8
		c-2.5,0-4.5,1.3-5.4,3.4l-5.8-1.4c1-3,2.8-5.2,5.5-6.5c2.6-1.3,5.4-1.5,6.8-1.5c3.5,0,6.5,1,8.5,2.8c2,1.8,3.1,4.4,3.1,7.4
		c0,4.4-3.1,7.8-10.2,14.9h-6.8C371.7,48.5,373.1,47.1,374.4,45.8L374.4,45.8z"/>
	<g>
		<linearGradient id="SVGID_2_" gradientUnits="userSpaceOnUse" x1="86.9215" y1="325.1296" x2="436.4742" y2="325.1296">
			<stop  offset="3.195558e-07" style="stop-color:#ED1C24"/>
			<stop  offset="1" style="stop-color:#FF00FF"/>
		</linearGradient>
		<path class="st15" d="M377.8,144.7c2.3,0.5,4.6,0.9,6.8,1.5c7.9,1.8,15.2,5,21.3,10.3c6.2,5.5,12.4,11.2,17.7,17.5
			c21.3,25.5,15.5,63.6-12.6,81.3c-9.9,6.2-20.5,11.4-31.1,16.2c-17.3,7.8-30.9,20.1-43.4,34.4c6.3,5.3,10.9,11.6,9.6,20.6
			c-1.2,8.6-8.5,12.9-13.5,19c8.4,8.4,16.6,16.6,24.9,24.9c4.5,4.5,6.6,9.9,4.5,16c-0.9,2.8-2.8,5.5-4.8,7.6
			c-6.5,6.9-13.3,13.5-20.1,20.2c-7.2,7.2-13.8,7.8-22.3,2.2c-0.3-0.2-0.6-0.2-1.4-0.5c0,1.6,0,3,0,4.3c-0.1,14.6,0.5,29.2-0.4,43.7
			c-1.3,21.1-16.4,37.2-37.2,41c-0.5,0.1-100.1,0.6-149.3,0.6c-7.8-1.6-15.4-4-21.8-9.1c-11-8.7-17.5-20-17.6-34.1
			c-0.3-32.7-0.3-65.3,0-98c0.3-24,20.4-43.3,44.7-43.3c27.4-0.1,54.9,0,82.3,0c1.4,0,2.8,0,5.1,0c-1.2-1.4-2-2.3-2.8-3.1
			c-16.4-16.5-32.8-32.9-49.2-49.4c-7.8-7.8-7.8-16.6,0-24.4c6.8-6.8,13.6-13.7,20.4-20.4c7.3-7.3,16.3-7.3,23.6,0
			c8.2,8.2,16.4,16.4,25.4,25.5c2.3-2.7,4.4-5.4,6.8-7.8c8.9-9,19.9-9,28.8-0.1c1.1,1.1,2,2.3,3.6,4.2c7.7-8.5,15.7-16,22.1-24.7
			c5.9-8,10.3-17.3,15.1-26.1c3.9-7.2,7.2-14.8,11-22c1.6-3.1,3.7-6,6-8.6c1.9-2.3,4.5-2.5,6.9-0.6c2.3,1.9,2.5,4.2,1.1,6.9
			c-5.7,10.6-11.9,21-17,31.9c-7.4,15.8-17.1,29.9-29.8,41.9c-2.7,2.5-5.3,5-7.5,7.2c15.5,15.5,30.7,30.8,46.3,46.3
			c2.4-2.4,5.3-5.4,8.2-8.5c11.3-11.9,24.3-21.2,39.2-28c7.5-3.4,14.8-7.1,22.1-10.7c29.6-14.5,35.7-50.7,12.4-74.2
			c-3.1-3.1-6-6.3-9.3-9.2c-13.7-12-29.2-15-46.5-9.2c-1,0.3-2,0.8-3,1.1c-3,0.9-5.1-0.3-6.3-3c-1.2-2.6,0-5.6,2.9-6.6
			c4.6-1.6,9.4-2.8,14.1-4.1c0.7-0.2,1.3-0.4,2-0.6C369.8,144.7,373.8,144.7,377.8,144.7z M200.2,495.2c22.4,0,44.8,0.1,67.2,0
			c21.2-0.1,35.7-14.8,35.8-36c0-17,0.1-34.1-0.1-51.1c0-1.8-0.9-4.2-2.2-5.5c-22.8-23-45.7-45.9-68.7-68.8
			c-1.3-1.3-3.6-2.3-5.4-2.3c-31-0.1-61.9-0.1-92.9-0.1c-22,0-36.6,14.6-36.6,36.6c0,30.2,0,60.4,0,90.6c0,3.2,0.2,6.4,0.9,9.4
			c3.7,16.5,17.2,27,34.8,27C155.4,495.3,177.8,495.2,200.2,495.2z M243.3,255.7c1,1.1,1.4,1.6,1.9,2.1
			c17.9,17.9,35.8,35.9,53.7,53.8c4,4,4.6,6.7,2.2,9.3c-2.5,2.6-5.5,2-9.5-2c-29-29.1-58-58.2-87.1-87.2c-3.9-3.9-6.2-4-10.1-0.1
			c-6.6,6.6-13.3,13.3-19.9,19.9c-3.7,3.7-3.7,6.1,0,9.8c48.5,48.6,97,97.2,145.5,145.8c3.7,3.8,6,3.7,9.8,0
			c6.5-6.5,12.9-13,19.4-19.4c4.4-4.5,4.4-6.4,0-10.9c-12.8-12.9-25.7-25.7-38.5-38.6c-3-3.1-3.3-5.9-1-8.3c2.3-2.3,5.4-2,8.3,1.1
			c2.3,2.4,4.4,5.1,6.8,7.9c3.1-3.2,5.2-5.5,7.5-7.8c5.1-5.2,5.1-9.7,0-14.9c-10.5-10.6-21-21.1-31.6-31.7
			c-11.9-12-23.9-23.9-35.8-35.9c-4.6-4.6-9.2-4.6-13.9-0.1C248.5,250.8,246,253.1,243.3,255.7z"/>
		<linearGradient id="SVGID_3_" gradientUnits="userSpaceOnUse" x1="86.603" y1="413.3358" x2="434.5836" y2="413.3358">
			<stop  offset="0" style="stop-color:#ED1C24"/>
			<stop  offset="1" style="stop-color:#FF00FF"/>
		</linearGradient>
		<path class="st16" d="M178.8,454c-1.5,0-3.2-1-5.3-3c-8.8-8.7-16.9-16.8-24.5-24.6c-1.9-1.9-2.8-3.7-2.8-5.4
			c0-1.2,0.6-2.4,1.8-3.6c1.1-1.1,2.3-1.6,3.5-1.6c1.6,0,3.4,0.9,5.1,2.6c4.5,4.5,8.9,9.1,13.6,13.9c2,2.1,4,4.2,6.1,6.3l2.1,2.2
			l47.1-47.3c5.8-5.8,11.8-11.8,17.7-17.7c2.1-2.1,4.2-3.2,5.9-3.2c1.2,0,2.3,0.6,3.5,1.7c0.9,1,3.8,3.9-1.3,9.1
			c-24.7,24.8-46.8,46.9-67.5,67.6C181.9,453,180.2,454,178.8,454z"/>
	</g>
</g>
<g id="Einstellungen">
</g>
</svg>
