<?xml version="1.0" encoding="utf-8"?>
<!-- Svg Vector Icons : http://www.onlinewebfonts.com/icon -->
<!DOCTYPE svg PUBLIC "-//W3C//DTD SVG 1.1//EN" "http://www.w3.org/Graphics/SVG/1.1/DTD/svg11.dtd">
<svg version="1.1" xmlns="http://www.w3.org/2000/svg" xmlns:xlink="http://www.w3.org/1999/xlink" x="0px" y="0px" viewBox="0 0 1000 1000" enable-background="new 0 0 1000 1000" xml:space="preserve">
<metadata> Svg Vector Icons : http://www.onlinewebfonts.com/icon </metadata>
<g><path d="M885,674.3V516.9v-17.5c0-19.3-15.7-35-35-35H535v-140h65c22.1,0,40-17.9,40-40v-200c0-22.1-17.9-40-40-40H400c-22.1,0-40,17.9-40,40v200c0,22.1,17.9,40,40,40h65v140H150c-19.3,0-35,15.7-35,35v35v141.2H50c-22.1,0-40,17.9-40,40v200c0,22.1,17.9,40,40,40h200c22.1,0,40-17.9,40-40v-200c0-22.1-17.9-40-40-40h-65V534.4h280v140h-65c-22.1,0-40,17.9-40,40v200c0,22.1,17.9,40,40,40h200c22.1,0,40-17.9,40-40v-200c0-22.1-17.9-40-40-40h-65v-140h280v140h-65c-22.1,0-40,17.9-40,40v200c0,22.1,17.9,40,40,40h200c22.1,0,40-17.9,40-40v-200c0-22.1-17.9-40-40-40H885z M430,114.4h140v140H430V114.4L430,114.4z M220,885.6H80v-140h140V885.6L220,885.6z M570,884.3H430v-140h140V884.3L570,884.3z M920,884.3H780v-140h140V884.3L920,884.3z"/></g>
</svg>