<svg id="Layer_1" data-name="Layer 1" xmlns="http://www.w3.org/2000/svg" xmlns:xlink="http://www.w3.org/1999/xlink" viewBox="0 0 1386 561"><defs><style>.cls-1{fill:url(#New_Gradient_Swatch_copy_6);}</style><linearGradient id="New_Gradient_Swatch_copy_6" x1="3.47" y1="280.43" x2="1386" y2="280.43" gradientUnits="userSpaceOnUse"><stop offset="0" stop-color="#ed1c24"/><stop offset="1" stop-color="#f0f"/></linearGradient></defs><path class="cls-1" d="M1239.92,228.43c1.64-1.57,3.32-3.19,5-4.86H1386V198.38h-44.81c30.54-32,43.49-51.56,43.49-78.56,0-23-8.25-42.76-23.85-57S1324,41.17,1299.09,41.17c-40.06,0-70.15,17.68-84.59,48.46C1163.43,32.48,1089.92.26,1007.84.26c-76.1,0-146.09,28.22-196.38,78.59C776.78,43.24,732.37,19.7,682.68,8.23,672.6,5.13,661,3.58,650.13,2V157.81a90.61,90.61,0,0,1,32.55,15.5c31.76,22.38,48.05,60.21,50.14,98.48.15,2.83.24,5.65.24,8.48s-.08,5.52-.23,8.29c-3.22,58.73-40.61,118.81-117.58,118.81-74.89,0-111.63-56.86-116.47-114q-.55-6.55-.56-13.07c0-4.39.2-8.79.57-13.18,3.13-36.78,19.43-73.09,50.58-94.55A90.5,90.5,0,0,1,581.93,157V123.71a134.07,134.07,0,0,0-32.56,10.85C522.52,147.62,502,168,487.85,192.36c-9.44-34.47-24.7-64.93-45.2-90.83,28.71-28.74,65.05-49.72,106.72-60.75,10.08-2.32,20.93-4.65,32.56-5.42V2c-11.63,1.55-22.48,3.1-32.56,5.43-49.74,11.3-93.62,35.07-128.79,69.88C369.48,28.58,295.31,1.5,203.77,1.5H3.47V438.8h200.3c68.21,0,120.51-28.19,147.42-76.07a276.91,276.91,0,0,0,47.36,95.44c-45.05,43.77-111.41,67.62-194.78,67.62H3.47V559.3h200.3c91.6,0,165.79-27.11,216.9-76,50.15,50,119.38,76.77,194.58,76.77,76.88,0,146.13-27.47,196.41-78.59,50.27,51,120.18,79.14,196.18,79.14,87.58,0,166.63-38,217-103.08a10.46,10.46,0,0,0,2.33-3.1l10.08-13.17-27.13-17.83a312.61,312.61,0,0,1-20.15,24.8V449a227.35,227.35,0,0,1-105.4,67.43,274.21,274.21,0,0,1-76.73,10.85c-70.5,0-131.4-26.24-174.55-70.53a271.21,271.21,0,0,0,45.5-91.44c23.8,43.4,67.26,75.16,129.05,75.16,17.05,0,33.32-3.1,48.82-7.75,20.15-6.2,38-17.05,53.48-31.77l3.1-3.1a131.4,131.4,0,0,0,20.93-24.8l-27.9-18.61-1.55,1.55L1097,366.84c-.78,1.56-2.33,2.33-3.11,3.88-13.17,14.73-29.45,25.58-48,31a118,118,0,0,1-38,6.2c-80.61,0-117-66.65-117-127.88s36.42-127.1,117-127.1c47.27,0,74.4,21.7,89.13,40.3l9.3,11.62,113.51-74.55,66.2,15.76.6-15.13v-.22c0-8.55,5-8.55,6.89-8.55,3.77,0,5.55,1.75,5.57,5.5-.1.57-1.67,7.25-25.16,31.81-21.22,21.92-46.05,45.94-59,58.31l-3.73,3.72v58.54H1386V254.86h-150V232.17C1237.28,231,1238.58,229.72,1239.92,228.43ZM682.68,135.34V41.56c42.12,10.92,78.71,32.4,107.4,62a276.8,276.8,0,0,0-45.6,91.56C730.63,169.72,710,148.42,682.68,135.34Zm-478.91,270H166.26v-249h37.51c83.79,0,134.06,46.28,134.06,123.69C337.83,358.21,287.56,405.29,203.77,405.29Zm908.7-243.83c-26.36-26.35-62.78-41.07-104.63-41.07-61.82,0-105.3,31.49-129.08,74.69C866,218.18,859,244.62,857.69,271.4c.09,2.94.15,5.89.15,8.87s-.06,5.72-.14,8.56c-1.56,54.74-18.06,103.4-46,142.27a226.61,226.61,0,0,1-21.49,25.7c-43.06,44.4-104,70.7-175,70.7-69.4,0-129.5-25.43-172.52-68.49a227.21,227.21,0,0,1-22.28-25.93C390.11,391.89,372,339.68,372,280.5c0-31.35-7.75-59.51-20.85-82.55-26.93-47.35-79.21-75.16-147.38-75.16H132v282.5H37V35H203.77c83.33,0,149.66,23.83,194.71,67.44a202,202,0,0,1,21.9,25c27.47,37.12,43,84.57,44.92,140.74.13,3.89.21,7.82.21,11.8s-.08,8.13-.22,12.13a174.74,174.74,0,0,0,22.58,75.77c24.14,41.69,67,72,127.38,72,61.88,0,105.38-31.86,129.15-75.17a175.72,175.72,0,0,0,21-75.94c-.09-2.91-.15-5.83-.15-8.77s.06-5.64.14-8.43c1.55-54.8,18.17-103.51,46.19-142.41a227.49,227.49,0,0,1,21.52-25.66c43.16-44.42,104.13-70.73,174.74-70.73,73.62,0,137.18,27.9,182.13,78.28Zm179.16,15.44c21.41-22.46,32.28-36.23,32.28-49.16,0-17.63-12.8-30.42-30.43-30.42-13,0-23.56,6.82-28.69,18.13l-30.67-7.36c5.05-15.67,14.7-27.16,28.74-34.2,13.65-6.84,28.35-7.86,35.9-7.86,18.5,0,34,5.11,44.83,14.78,10.62,9.49,16.23,23,16.23,39,0,23.26-16.42,41.13-53.51,78.56h-35.78C1277.7,191.27,1285,184,1291.63,176.9Z"/></svg>