<?xml version="1.0" encoding="utf-8"?>
<!-- Generator: Adobe Illustrator 25.0.1, SVG Export Plug-In . SVG Version: 6.00 Build 0)  -->
<svg version="1.1" xmlns="http://www.w3.org/2000/svg" xmlns:xlink="http://www.w3.org/1999/xlink" x="0px" y="0px"
	 viewBox="0 0 512 512" style="enable-background:new 0 0 512 512;" xml:space="preserve">
<style type="text/css">
	.st0{fill:none;stroke:#565656;stroke-width:15;stroke-linecap:round;stroke-linejoin:round;stroke-miterlimit:10;}
	.st1{fill:none;stroke:#565656;stroke-width:15;stroke-miterlimit:10;}
	.st2{fill:none;stroke:#565656;stroke-width:15;stroke-linecap:round;stroke-miterlimit:10;}
	.st3{fill:none;stroke:#565656;stroke-width:15;stroke-linecap:round;}
	.st4{fill:#565656;}
	.st5{fill:none;stroke:#565656;stroke-width:15;stroke-linecap:round;stroke-linejoin:round;}
	.st6{fill:none;stroke:#565656;stroke-width:15;stroke-linecap:round;stroke-linejoin:round;stroke-dasharray:24.8533,49.7066;}
	
		.st7{fill:none;stroke:#565656;stroke-width:15;stroke-linecap:round;stroke-linejoin:round;stroke-dasharray:24.8533,49.7066,24.8533,49.7066;}
	.st8{fill:#BABABA;}
	.st9{fill:none;stroke:#9013FE;stroke-width:15;stroke-linecap:round;}
	.st10{fill:none;stroke:#565656;stroke-width:15;stroke-linecap:round;stroke-miterlimit:10;stroke-dasharray:32.1931,42.9241;}
	
		.st11{fill:none;stroke:#565656;stroke-width:15;stroke-linecap:round;stroke-miterlimit:10;stroke-dasharray:32.1931,42.9241,32.1931,42.9241;}
	.st12{fill:none;stroke:#565656;stroke-width:15;stroke-linejoin:round;stroke-miterlimit:10;}
	.st13{fill:#FFFFFF;}
	.st14{fill:url(#SVGID_1_);}
	.st15{fill:url(#SVGID_2_);}
	.st16{fill:url(#SVGID_3_);}
	.st17{fill:url(#SVGID_4_);}
	.st18{fill:url(#SVGID_5_);}
	.st19{fill:url(#SVGID_6_);}
	.st20{fill:url(#SVGID_7_);}
	.st21{fill:url(#SVGID_8_);}
	.st22{fill:url(#SVGID_9_);}
	.st23{fill:url(#SVGID_10_);}
	.st24{fill:url(#SVGID_11_);}
	.st25{fill:url(#SVGID_12_);}
	.st26{fill:url(#SVGID_13_);}
	.st27{fill:url(#SVGID_14_);}
	.st28{fill:url(#SVGID_15_);}
	.st29{fill:url(#SVGID_16_);}
	.st30{fill:url(#SVGID_17_);}
	.st31{fill:url(#SVGID_18_);}
	.st32{fill:url(#SVGID_19_);}
	.st33{fill:url(#SVGID_20_);}
	.st34{fill:url(#SVGID_21_);}
	.st35{fill:url(#SVGID_22_);}
</style>
<g id="Layer_1">
	<g>
		<linearGradient id="SVGID_1_" gradientUnits="userSpaceOnUse" x1="57.5839" y1="304.8909" x2="445.1499" y2="304.8909">
			<stop  offset="3.195558e-07" style="stop-color:#ED1C24"/>
			<stop  offset="1" style="stop-color:#FF00FF"/>
		</linearGradient>
		<path class="st14" d="M253.2,479.5c-11.4,0-22.5,0-33.2-0.1c-6.3-0.1-25.6-0.2-25.6-22c0-46,0-134.9,0-148.7l-13.2,0
			c-14.5,0-29,0-43.5,0c-2.2,0-8,0-11.9-5.2c-3.7-5-3.3-11.3,1.1-16.8c10.7-13.4,99.6-129.9,117.3-153.1c1.6-2.1,3.9-3.2,6.5-3.2
			c0,0,0,0,0,0c2.6,0,5,1.2,6.5,3.2c16.5,21.5,35,46.2,52.9,70.1c21.4,28.6,43.6,58.2,62.8,83.1c5.3,6.7,3.9,12.3,1.7,15.8
			c-3.8,6.1-10.4,6.1-12.6,6.1c-16.9,0-48.7,0-56.7,0l0,105.2c0,3.1-2.5,5.6-5.6,5.6c0,0,0,0,0,0c-3.1,0-5.6-2.5-5.6-5.6l0-107
			c0-5.2,4.2-9.4,9.4-9.4c0,0,39.1,0,58.5,0c0,0,0,0,0,0c2.5,0,2.7-0.4,3-0.8c0.3-0.5,0.6-0.9-1-2.9c0,0,0,0-0.1-0.1
			c-19.3-24.9-41.5-54.6-63-83.2c-17-22.7-34.6-46.1-50.4-66.8c-22.2,29.1-104.7,137.2-115,150.1c-1.6,2-1.2,2.6-0.9,3
			c0.2,0.3,0.5,0.7,2.9,0.7c0,0,0,0,0,0c14.5,0,29,0,43.5,0l15.1,0c5.2,0,9.4,4.2,9.4,9.4c0,0,0,100.6,0,150.6
			c0,7.2,2.2,10.7,14.5,10.8c18.9,0.2,38.4,0.2,59.8,0.1c12.2-0.1,14.2-3.5,14.2-11.2l0-11c0-3.1,2.5-5.6,5.6-5.6c0,0,0,0,0,0
			c3.1,0,5.6,2.5,5.6,5.6l0,11c0,22.3-19.1,22.4-25.4,22.4C270.7,479.5,261.8,479.5,253.2,479.5z"/>
	</g>
	<linearGradient id="SVGID_2_" gradientUnits="userSpaceOnUse" x1="58.0023" y1="505.6466" x2="441.4508" y2="505.6466">
		<stop  offset="3.195558e-07" style="stop-color:#ED1C24"/>
		<stop  offset="1" style="stop-color:#FF00FF"/>
	</linearGradient>
	<path class="st15" d="M435.8,511.3H63.6c-3.1,0-5.6-2.5-5.6-5.6c0-3.1,2.5-5.6,5.6-5.6h372.2c3.1,0,5.6,2.5,5.6,5.6
		C441.5,508.8,438.9,511.3,435.8,511.3z"/>
	
		<linearGradient id="SVGID_3_" gradientUnits="userSpaceOnUse" x1="131.9675" y1="-1981.0944" x2="394.3224" y2="-1981.0944" gradientTransform="matrix(1 0 0 -1 0 -1915.5173)">
		<stop  offset="0" style="stop-color:#ED1C24"/>
		<stop  offset="1" style="stop-color:#FF00FF"/>
	</linearGradient>
	<path class="st16" d="M366.6,55.7c0.3-0.3,0.6-0.6,0.9-0.9h26.8V50h-8.5c5.8-6.1,8.3-9.8,8.3-14.9c0-4.4-1.6-8.1-4.5-10.8
		s-7-4.1-11.7-4.1c-7.6,0-13.3,3.4-16.1,9.2c-9.7-10.8-23.6-17-39.2-17c-14.4,0-27.7,5.4-37.3,14.9c-6.6-6.8-15-11.2-24.4-13.4
		c-1.9-0.6-4.1-0.9-6.2-1.2v29.6c2.2,0.6,4.3,1.6,6.2,2.9c6,4.2,9.1,11.4,9.5,18.7c0,0.5,0,1.1,0,1.6c0,0.5,0,1,0,1.6
		c-0.6,11.1-7.7,22.5-22.3,22.5c-14.2,0-21.2-10.8-22.1-21.6c-0.1-0.8-0.1-1.7-0.1-2.5c0-0.8,0-1.7,0.1-2.5c0.6-7,3.7-13.9,9.6-17.9
		c1.8-1.4,3.9-2.4,6.2-3v-6.3c-2.1,0.4-4.2,1.1-6.2,2.1c-5.1,2.5-9,6.3-11.7,11c-1.8-6.5-4.7-12.3-8.6-17.2
		c5.4-5.5,12.3-9.4,20.3-11.5c1.9-0.4,4-0.9,6.2-1v-6.3c-2.2,0.3-4.3,0.6-6.2,1c-9.4,2.1-17.8,6.7-24.4,13.3
		c-9.7-9.2-23.8-14.4-41.1-14.4h-38v83h38c12.9,0,22.9-5.3,28-14.4c1.8,6.6,4.8,12.7,9,18.1c-8.5,8.3-21.1,12.8-37,12.8h-38v6.4h38
		c17.4,0,31.5-5.1,41.2-14.4c9.5,9.5,22.7,14.6,36.9,14.6c14.6,0,27.7-5.2,37.3-14.9c9.5,9.7,22.8,15,37.2,15
		c16.6,0,31.6-7.2,41.2-19.6c0.2-0.2,0.3-0.4,0.4-0.6l1.9-2.5l-5.1-3.4c-1.2,1.6-2.5,3.2-3.8,4.7v0.1c-5.3,6.1-12.3,10.5-20,12.8
		c-4.7,1.4-9.6,2.1-14.6,2.1c-13.4,0-24.9-5-33.1-13.4c4-5.2,6.9-11.1,8.6-17.4c4.5,8.2,12.8,14.3,24.5,14.3c3.2,0,6.3-0.6,9.3-1.5
		c3.8-1.2,7.2-3.2,10.1-6l0.6-0.6c1.5-1.4,2.8-3,4-4.7l-5.3-3.5l-0.3,0.3l-1.5,2.1c-0.1,0.3-0.4,0.4-0.6,0.7
		c-2.5,2.8-5.6,4.9-9.1,5.9c-2.3,0.8-4.8,1.2-7.2,1.2c-15.3,0-22.2-12.6-22.2-24.3s6.9-24.1,22.2-24.1c9,0,14.1,4.1,16.9,7.6
		l1.8,2.2l21.5-14.1l12.6,3l0.1-2.9v0c0-1.6,0.9-1.6,1.3-1.6c0.7,0,1.1,0.3,1.1,1c0,0.1-0.3,1.4-4.8,6c-4,4.2-8.7,8.7-11.2,11.1
		l-0.7,0.7v11.1h33.2v-4.8h-28.5v-4.3C366.1,56.2,366.3,56,366.6,55.7z M260.9,38V20.2c8,2.1,14.9,6.1,20.4,11.8
		c-3.9,5.2-6.9,11.1-8.7,17.4C270,44.6,266,40.5,260.9,38z M170,89.3h-7.1V42h7.1c15.9,0,25.4,8.8,25.4,23.5
		C195.4,80.3,185.9,89.3,170,89.3L170,89.3z M342.4,43c-5-5-11.9-7.8-19.9-7.8c-11.7,0-20,6-24.5,14.2c-2.4,4.4-3.7,9.4-4,14.5
		c0,0.6,0,1.1,0,1.7c0,0.6,0,1.1,0,1.6c-0.3,10.4-3.4,19.6-8.7,27c-1.2,1.7-2.6,3.4-4.1,4.9c-8.2,8.4-19.7,13.4-33.2,13.4
		c-13.2,0-24.6-4.8-32.7-13c-1.5-1.5-2.9-3.2-4.2-4.9c-5.7-7.8-9.2-17.7-9.2-29c0-5.9-1.5-11.3-4-15.7c-5.1-9-15-14.3-28-14.3h-13.6
		v53.6h-18V19H170c15.8,0,28.4,4.5,36.9,12.8c1.5,1.5,2.9,3.1,4.2,4.7c5.2,7,8.2,16,8.5,26.7c0,0.7,0,1.5,0,2.2s0,1.5,0,2.3
		c0.3,5.1,1.8,10,4.3,14.4c4.6,7.9,12.7,13.7,24.2,13.7c11.7,0,20-6,24.5-14.3c2.4-4.4,3.8-9.4,4-14.4c0-0.6,0-1.1,0-1.7
		s0-1.1,0-1.6c0.3-10.4,3.4-19.6,8.8-27c1.2-1.7,2.6-3.3,4.1-4.9c8.2-8.4,19.8-13.4,33.2-13.4c14,0,26,5.3,34.6,14.9L342.4,43z
		 M376.4,45.9c4.1-4.3,6.1-6.9,6.1-9.3c0-3.3-2.4-5.8-5.8-5.8c-2.5,0-4.5,1.3-5.4,3.4l-5.8-1.4c1-3,2.8-5.2,5.5-6.5
		c2.6-1.3,5.4-1.5,6.8-1.5c3.5,0,6.5,1,8.5,2.8c2,1.8,3.1,4.4,3.1,7.4c0,4.4-3.1,7.8-10.2,14.9h-6.8
		C373.8,48.7,375.2,47.3,376.4,45.9L376.4,45.9z"/>
</g>
<g id="Einstellungen">
</g>
</svg>
