<?xml version="1.0" encoding="utf-8"?>
<!-- Generator: Adobe Illustrator 25.0.1, SVG Export Plug-In . SVG Version: 6.00 Build 0)  -->
<svg version="1.1" xmlns="http://www.w3.org/2000/svg" xmlns:xlink="http://www.w3.org/1999/xlink" x="0px" y="0px"
	 viewBox="0 0 512 512" style="enable-background:new 0 0 512 512;" xml:space="preserve">
<style type="text/css">
	.st0{fill:none;stroke:#565656;stroke-width:15;stroke-linecap:round;stroke-linejoin:round;stroke-miterlimit:10;}
	.st1{fill:none;stroke:#565656;stroke-width:15;stroke-miterlimit:10;}
	.st2{fill:none;stroke:#565656;stroke-width:15;stroke-linecap:round;stroke-miterlimit:10;}
	.st3{fill:none;stroke:#565656;stroke-width:15;stroke-linecap:round;}
	.st4{fill:#565656;}
	.st5{fill:none;stroke:#565656;stroke-width:15;stroke-linecap:round;stroke-linejoin:round;}
	.st6{fill:none;stroke:#565656;stroke-width:15;stroke-linecap:round;stroke-linejoin:round;stroke-dasharray:24.8533,49.7066;}
	
		.st7{fill:none;stroke:#565656;stroke-width:15;stroke-linecap:round;stroke-linejoin:round;stroke-dasharray:24.8533,49.7066,24.8533,49.7066;}
	.st8{fill:#BABABA;}
	.st9{fill:none;stroke:#9013FE;stroke-width:15;stroke-linecap:round;}
	.st10{fill:none;stroke:#565656;stroke-width:15;stroke-linecap:round;stroke-miterlimit:10;stroke-dasharray:32.1931,42.9241;}
	
		.st11{fill:none;stroke:#565656;stroke-width:15;stroke-linecap:round;stroke-miterlimit:10;stroke-dasharray:32.1931,42.9241,32.1931,42.9241;}
	.st12{fill:none;stroke:#565656;stroke-width:15;stroke-linejoin:round;stroke-miterlimit:10;}
	.st13{fill:#FFFFFF;}
	.st14{fill:url(#SVGID_1_);}
	.st15{fill:url(#SVGID_2_);}
	.st16{fill:url(#SVGID_3_);}
	.st17{fill:url(#SVGID_4_);}
	.st18{fill:url(#SVGID_5_);}
	.st19{fill:url(#SVGID_6_);}
	.st20{fill:url(#SVGID_7_);}
	.st21{fill:url(#SVGID_8_);}
	.st22{fill:url(#SVGID_9_);}
	.st23{fill:url(#SVGID_10_);}
	.st24{fill:url(#SVGID_11_);}
	.st25{fill:url(#SVGID_12_);}
	.st26{fill:url(#SVGID_13_);}
	.st27{fill:url(#SVGID_14_);}
	.st28{fill:url(#SVGID_15_);}
	.st29{fill:url(#SVGID_16_);}
	.st30{fill:url(#SVGID_17_);}
	.st31{fill:url(#SVGID_18_);}
	.st32{fill:url(#SVGID_19_);}
	.st33{fill:url(#SVGID_20_);}
	.st34{fill:url(#SVGID_21_);}
	.st35{fill:url(#SVGID_22_);}
</style>
<g id="Layer_1">
	<linearGradient id="SVGID_1_" gradientUnits="userSpaceOnUse" x1="90.7488" y1="355.7737" x2="433.254" y2="355.7737">
		<stop  offset="3.195558e-07" style="stop-color:#ED1C24"/>
		<stop  offset="1" style="stop-color:#FF00FF"/>
	</linearGradient>
	<path class="st14" d="M374.1,511.5H118.9l-0.4-0.1c-15.8-2.3-27.8-17.6-27.8-35.5V233.7c0-18.6,12.8-33.7,28.6-33.7h173.9
		c3.2,0,5.7,2.6,5.7,5.7s-2.6,5.7-5.7,5.7H119.3c-9.5,0-17.2,10-17.2,22.3v242.2c0,11.9,7.7,22.5,17.6,24.2h253.4
		c9.9-1.7,17.6-12.2,17.6-24.2V233.7c0-3.2,2.6-5.7,5.7-5.7s5.7,2.6,5.7,5.7v242.2c0,17.9-11.9,33.2-27.8,35.5L374.1,511.5z"/>
	<linearGradient id="SVGID_2_" gradientUnits="userSpaceOnUse" x1="88.3842" y1="242.3186" x2="433.0023" y2="242.3186">
		<stop  offset="3.195558e-07" style="stop-color:#ED1C24"/>
		<stop  offset="1" style="stop-color:#FF00FF"/>
	</linearGradient>
	<path class="st15" d="M426.1,134h-66.5c-3.2,0-5.7,2.6-5.7,5.7s2.6,5.7,5.7,5.7h52.7L216.8,340.9c-2.2,2.2-2.2,5.9,0,8.1
		c1.1,1.1,2.6,1.7,4,1.7c1.5,0,2.9-0.6,4-1.7l195.4-195.4v51.9c0,3.2,2.6,5.7,5.7,5.7c3.2,0,5.7-2.6,5.7-5.7v-65.7
		C431.8,136.6,429.2,134,426.1,134z"/>
	
		<linearGradient id="SVGID_3_" gradientUnits="userSpaceOnUse" x1="125.7493" y1="-1981.0184" x2="388.1042" y2="-1981.0184" gradientTransform="matrix(1 0 0 -1 0 -1915.5173)">
		<stop  offset="0" style="stop-color:#ED1C24"/>
		<stop  offset="1" style="stop-color:#FF00FF"/>
	</linearGradient>
	<path class="st16" d="M360.4,55.6c0.3-0.3,0.6-0.6,0.9-0.9h26.8v-4.8h-8.5c5.8-6.1,8.3-9.8,8.3-14.9c0-4.4-1.6-8.1-4.5-10.8
		c-3-2.7-7-4.1-11.7-4.1c-7.6,0-13.3,3.4-16.1,9.2c-9.7-10.8-23.6-17-39.2-17c-14.4,0-27.7,5.4-37.3,14.9
		c-6.6-6.8-15-11.2-24.4-13.4c-1.9-0.6-4.1-0.9-6.2-1.2v29.6c2.2,0.6,4.3,1.6,6.2,2.9c6,4.2,9.1,11.4,9.5,18.7c0,0.5,0,1.1,0,1.6
		c0,0.5,0,1,0,1.6c-0.6,11.1-7.7,22.5-22.3,22.5c-14.2,0-21.2-10.8-22.1-21.6c-0.1-0.8-0.1-1.7-0.1-2.5c0-0.8,0-1.7,0.1-2.5
		c0.6-7,3.7-13.9,9.6-17.9c1.8-1.4,3.9-2.4,6.2-3v-6.3c-2.1,0.4-4.2,1.1-6.2,2.1c-5.1,2.5-9,6.3-11.7,11c-1.8-6.5-4.7-12.3-8.6-17.2
		c5.4-5.5,12.3-9.4,20.3-11.5c1.9-0.4,4-0.9,6.2-1v-6.3c-2.2,0.3-4.3,0.6-6.2,1c-9.4,2.1-17.8,6.7-24.4,13.3
		c-9.7-9.2-23.8-14.4-41.1-14.4h-38v83h38c12.9,0,22.9-5.3,28-14.4c1.8,6.6,4.8,12.7,9,18.1c-8.5,8.3-21.1,12.8-37,12.8h-38v6.4h38
		c17.4,0,31.5-5.1,41.2-14.4c9.5,9.5,22.7,14.6,36.9,14.6c14.6,0,27.7-5.2,37.3-14.9c9.5,9.7,22.8,15,37.2,15
		c16.6,0,31.6-7.2,41.2-19.6c0.2-0.2,0.3-0.4,0.4-0.6l1.9-2.5l-5.1-3.4c-1.2,1.6-2.5,3.2-3.8,4.7v0.1c-5.3,6.1-12.3,10.5-20,12.8
		c-4.7,1.4-9.6,2.1-14.6,2.1c-13.4,0-24.9-5-33.1-13.4c4-5.2,6.9-11.1,8.6-17.4c4.5,8.2,12.8,14.3,24.5,14.3c3.2,0,6.3-0.6,9.3-1.5
		c3.8-1.2,7.2-3.2,10.1-6l0.6-0.6c1.5-1.4,2.8-3,4-4.7l-5.3-3.5l-0.3,0.3l-1.5,2.1c-0.1,0.3-0.4,0.4-0.6,0.7
		c-2.5,2.8-5.6,4.9-9.1,5.9c-2.3,0.8-4.8,1.2-7.2,1.2c-15.3,0-22.2-12.6-22.2-24.3s6.9-24.1,22.2-24.1c9,0,14.1,4.1,16.9,7.6
		l1.8,2.2L356.6,37l12.6,3l0.1-2.9v0c0-1.6,0.9-1.6,1.3-1.6c0.7,0,1.1,0.3,1.1,1c0,0.1-0.3,1.4-4.8,6c-4,4.2-8.7,8.7-11.2,11.1
		l-0.7,0.7v11.1h33.2v-4.8h-28.5v-4.3C359.9,56.1,360.1,55.9,360.4,55.6z M254.6,38V20.2c8,2.1,14.9,6.1,20.4,11.8
		c-3.9,5.2-6.9,11.1-8.7,17.4C263.7,44.5,259.8,40.4,254.6,38z M163.8,89.2h-7.1V42h7.1c15.9,0,25.4,8.8,25.4,23.5
		C189.2,80.3,179.7,89.2,163.8,89.2L163.8,89.2z M336.2,42.9c-5-5-11.9-7.8-19.9-7.8c-11.7,0-20,6-24.5,14.2
		c-2.4,4.4-3.7,9.4-4,14.5c0,0.6,0,1.1,0,1.7s0,1.1,0,1.6c-0.3,10.4-3.4,19.6-8.7,27c-1.2,1.7-2.6,3.4-4.1,4.9
		c-8.2,8.4-19.7,13.4-33.2,13.4c-13.2,0-24.6-4.8-32.7-13c-1.5-1.5-2.9-3.2-4.2-4.9c-5.7-7.8-9.2-17.7-9.2-29c0-5.9-1.5-11.3-4-15.7
		c-5.1-9-15-14.3-28-14.3h-13.6v53.6h-18V18.9h31.6c15.8,0,28.4,4.5,36.9,12.8c1.5,1.5,2.9,3.1,4.2,4.7c5.2,7,8.2,16,8.5,26.7
		c0,0.7,0,1.5,0,2.2c0,0.8,0,1.5,0,2.3c0.3,5.1,1.8,10,4.3,14.4c4.6,7.9,12.7,13.7,24.2,13.7c11.7,0,20-6,24.5-14.3
		c2.4-4.4,3.8-9.4,4-14.4c0-0.6,0-1.1,0-1.7s0-1.1,0-1.6c0.3-10.4,3.4-19.6,8.8-27c1.2-1.7,2.6-3.3,4.1-4.9
		c8.2-8.4,19.8-13.4,33.2-13.4c14,0,26,5.3,34.6,14.9L336.2,42.9z M370.2,45.9c4.1-4.3,6.1-6.9,6.1-9.3c0-3.3-2.4-5.8-5.8-5.8
		c-2.5,0-4.5,1.3-5.4,3.4l-5.8-1.4c1-3,2.8-5.2,5.5-6.5c2.6-1.3,5.4-1.5,6.8-1.5c3.5,0,6.5,1,8.5,2.8c2,1.8,3.1,4.4,3.1,7.4
		c0,4.4-3.1,7.8-10.2,14.9h-6.8C367.6,48.6,368.9,47.2,370.2,45.9L370.2,45.9z"/>
</g>
<g id="Einstellungen">
</g>
</svg>
