<?xml version="1.0" encoding="utf-8"?>
<!-- Generator: Adobe Illustrator 25.0.1, SVG Export Plug-In . SVG Version: 6.00 Build 0)  -->
<svg version="1.1" xmlns="http://www.w3.org/2000/svg" xmlns:xlink="http://www.w3.org/1999/xlink" x="0px" y="0px"
	 viewBox="0 0 512 512" style="enable-background:new 0 0 512 512;" xml:space="preserve">
<style type="text/css">
	.st0{fill:none;stroke:#565656;stroke-width:15;stroke-linecap:round;stroke-linejoin:round;stroke-miterlimit:10;}
	.st1{fill:none;stroke:#565656;stroke-width:15;stroke-miterlimit:10;}
	.st2{fill:none;stroke:#565656;stroke-width:15;stroke-linecap:round;stroke-miterlimit:10;}
	.st3{fill:none;stroke:#565656;stroke-width:15;stroke-linecap:round;}
	.st4{fill:#565656;}
	.st5{fill:none;stroke:#565656;stroke-width:15;stroke-linecap:round;stroke-linejoin:round;}
	.st6{fill:none;stroke:#565656;stroke-width:15;stroke-linecap:round;stroke-linejoin:round;stroke-dasharray:24.8533,49.7066;}
	
		.st7{fill:none;stroke:#565656;stroke-width:15;stroke-linecap:round;stroke-linejoin:round;stroke-dasharray:24.8533,49.7066,24.8533,49.7066;}
	.st8{fill:#BABABA;}
	.st9{fill:none;stroke:#9013FE;stroke-width:15;stroke-linecap:round;}
	.st10{fill:none;stroke:#565656;stroke-width:15;stroke-linecap:round;stroke-miterlimit:10;stroke-dasharray:32.1931,42.9241;}
	
		.st11{fill:none;stroke:#565656;stroke-width:15;stroke-linecap:round;stroke-miterlimit:10;stroke-dasharray:32.1931,42.9241,32.1931,42.9241;}
	.st12{fill:none;stroke:#565656;stroke-width:15;stroke-linejoin:round;stroke-miterlimit:10;}
	.st13{fill:#FFFFFF;}
	.st14{fill:url(#SVGID_1_);}
	.st15{fill:url(#SVGID_2_);}
	.st16{fill:url(#SVGID_3_);}
	.st17{fill:url(#SVGID_4_);}
	.st18{fill:url(#SVGID_5_);}
	.st19{fill:url(#SVGID_6_);}
	.st20{fill:url(#SVGID_7_);}
	.st21{fill:url(#SVGID_8_);}
	.st22{fill:url(#SVGID_9_);}
	.st23{fill:url(#SVGID_10_);}
	.st24{fill:url(#SVGID_11_);}
	.st25{fill:url(#SVGID_12_);}
	.st26{fill:url(#SVGID_13_);}
	.st27{fill:url(#SVGID_14_);}
	.st28{fill:url(#SVGID_15_);}
	.st29{fill:url(#SVGID_16_);}
	.st30{fill:url(#SVGID_17_);}
	.st31{fill:url(#SVGID_18_);}
	.st32{fill:url(#SVGID_19_);}
	.st33{fill:url(#SVGID_20_);}
	.st34{fill:url(#SVGID_21_);}
	.st35{fill:url(#SVGID_22_);}
</style>
<g id="Layer_1">
	<g>
		<g>
			<linearGradient id="SVGID_1_" gradientUnits="userSpaceOnUse" x1="-0.1238" y1="180.6006" x2="511.0765" y2="180.6006">
				<stop  offset="3.195558e-07" style="stop-color:#ED1C24"/>
				<stop  offset="1" style="stop-color:#FF00FF"/>
			</linearGradient>
			<path class="st14" d="M80.1,229.8C80.2,229.8,80.2,229.8,80.1,229.8c13.5,0,26-5.2,35.4-14.7c9.3-9.4,14.4-21.8,14.3-35
				c-0.2-26.9-22.4-48.7-49.6-48.7c0,0,0,0-0.1,0c-27.1,0-49.2,22.1-49.1,49.2c0,13.1,5.2,25.4,14.5,34.7
				C54.8,224.7,67.1,229.8,80.1,229.8z M80.1,146.4C80.2,146.4,80.2,146.4,80.1,146.4c19,0,34.5,15.2,34.6,33.8
				c0.1,9.2-3.5,17.8-9.9,24.4c-6.5,6.6-15.3,10.2-24.6,10.2l0,0c0,0,0,0-0.1,0c-9,0-17.6-3.6-24.1-10c-6.5-6.5-10.1-15.1-10.1-24.1
				C46,161.8,61.3,146.4,80.1,146.4z"/>
			<linearGradient id="SVGID_2_" gradientUnits="userSpaceOnUse" x1="0.4628" y1="374.3184" x2="512.7377" y2="374.3184">
				<stop  offset="3.195558e-07" style="stop-color:#ED1C24"/>
				<stop  offset="1" style="stop-color:#FF00FF"/>
			</linearGradient>
			<path class="st15" d="M108,239.7H54.5c-29.8,0-54,24.2-54,54v77.9c0,14.1,11.5,25.6,25.6,25.6c4,0,7.9-0.9,11.3-2.6l4,77.1
				c0.1,20.6,16.9,37.3,37.5,37.3h4c20.6,0,37.4-16.7,37.5-37.3l0.8-15c0.2-4.1-3-7.7-7.1-7.9c-4.1-0.2-7.7,3-7.9,7.1l-0.8,15.2
				l0,0.4c0,12.4-10.1,22.5-22.5,22.5h-4c-12.4,0-22.5-10.1-22.5-22.5l-5-95.9c0.2-1.3,0.3-2.6,0.3-4v-63.8c0-4.1-3.4-7.5-7.5-7.5
				c-4.1,0-7.5,3.4-7.5,7.5v63.8c0,5.9-4.8,10.6-10.6,10.6c-5.9,0-10.6-4.8-10.6-10.6v-77.9c0-21.5,17.5-39,39-39H108
				c21.5,0,39,17.5,39,39v77.9c0,5.9-4.8,10.6-10.6,10.6s-10.6-4.8-10.6-10.6v-63.8c0-4.1-3.4-7.5-7.5-7.5c-4.1,0-7.5,3.4-7.5,7.5
				v63.8c0,0.4,0,0.8,0,1.2c-0.2,0.6-0.3,1.3-0.4,2l-2.7,51.9c-0.2,4.1,3,7.7,7.1,7.9c0.1,0,0.3,0,0.4,0c4,0,7.3-3.1,7.5-7.1
				l1.7-33.1c3.6,1.9,7.6,3,12,3c14.1,0,25.6-11.5,25.6-25.6v-77.9C162,263.9,137.8,239.7,108,239.7z"/>
		</g>
		<g>
			<linearGradient id="SVGID_3_" gradientUnits="userSpaceOnUse" x1="-0.1308" y1="179.6152" x2="511.1282" y2="179.6152">
				<stop  offset="3.195558e-07" style="stop-color:#ED1C24"/>
				<stop  offset="1" style="stop-color:#FF00FF"/>
			</linearGradient>
			<path class="st16" d="M429.7,228.8C429.7,228.8,429.8,228.8,429.7,228.8c13.5,0,26-5.2,35.4-14.7c9.3-9.4,14.4-21.8,14.3-35
				c-0.2-26.9-22.4-48.7-49.6-48.7c0,0,0,0-0.1,0c-27.1,0-49.2,22.1-49.1,49.2c0,13.1,5.2,25.4,14.5,34.7
				C404.3,223.7,416.6,228.8,429.7,228.8z M429.7,145.4C429.7,145.4,429.7,145.4,429.7,145.4c19,0,34.5,15.2,34.6,33.8
				c0.1,9.2-3.5,17.8-9.9,24.4c-6.5,6.6-15.3,10.2-24.6,10.2l0,0c0,0,0,0-0.1,0c-9,0-17.6-3.6-24.1-10c-6.5-6.5-10.1-15.1-10.1-24.1
				C395.5,160.8,410.8,145.4,429.7,145.4z"/>
			<linearGradient id="SVGID_4_" gradientUnits="userSpaceOnUse" x1="0.1364" y1="373.333" x2="512.5297" y2="373.333">
				<stop  offset="3.195558e-07" style="stop-color:#ED1C24"/>
				<stop  offset="1" style="stop-color:#FF00FF"/>
			</linearGradient>
			<path class="st17" d="M457.5,238.7H404c-29.8,0-54,24.2-54,54v77.9c0,14.1,11.5,25.6,25.6,25.6c4,0,7.9-0.9,11.3-2.6l4,77.1
				c0.1,20.6,16.9,37.3,37.5,37.3h4c20.6,0,37.4-16.7,37.5-37.3l0.8-15c0.2-4.1-3-7.7-7.1-7.9c-4.1-0.2-7.7,3-7.9,7.1l-0.8,15.2
				l0,0.4c0,12.4-10.1,22.5-22.5,22.5h-4c-12.4,0-22.5-10.1-22.5-22.5l-5-95.9c0.2-1.3,0.3-2.6,0.3-4v-63.8c0-4.1-3.4-7.5-7.5-7.5
				c-4.1,0-7.5,3.4-7.5,7.5v63.8c0,5.9-4.8,10.6-10.6,10.6c-5.9,0-10.6-4.8-10.6-10.6v-77.9c0-21.5,17.5-39,39-39h53.5
				c21.5,0,39,17.5,39,39v77.9c0,5.9-4.8,10.6-10.6,10.6s-10.6-4.8-10.6-10.6v-63.8c0-4.1-3.4-7.5-7.5-7.5c-4.1,0-7.5,3.4-7.5,7.5
				v63.8c0,0.4,0,0.8,0,1.2c-0.2,0.6-0.3,1.3-0.4,1.9l-2.7,51.9c-0.2,4.1,3,7.7,7.1,7.9c0.1,0,0.3,0,0.4,0c4,0,7.3-3.1,7.5-7.1
				l1.7-33.1c3.6,1.9,7.6,3,12,3c14.1,0,25.6-11.5,25.6-25.6v-77.9C511.5,262.9,487.3,238.7,457.5,238.7z"/>
		</g>
		<linearGradient id="SVGID_5_" gradientUnits="userSpaceOnUse" x1="0.261" y1="337.1057" x2="511.3997" y2="337.1057">
			<stop  offset="3.195558e-07" style="stop-color:#ED1C24"/>
			<stop  offset="1" style="stop-color:#FF00FF"/>
		</linearGradient>
		<path class="st18" d="M331.1,331.8l-37-37c-2.9-2.9-7.7-2.9-10.6,0c-2.9,2.9-2.9,7.7,0,10.6l24.2,24.2H204.3l24.2-24.2
			c2.9-2.9,2.9-7.7,0-10.6c-2.9-2.9-7.7-2.9-10.6,0l-37,37c-2.9,2.9-2.9,7.7,0,10.6l37,37c1.5,1.5,3.4,2.2,5.3,2.2
			c1.9,0,3.8-0.7,5.3-2.2c2.9-2.9,2.9-7.7,0-10.6l-24.2-24.2h103.4l-24.2,24.2c-2.9,2.9-2.9,7.7,0,10.6c1.5,1.5,3.4,2.2,5.3,2.2
			s3.8-0.7,5.3-2.2l37-37C334,339.5,334,334.7,331.1,331.8z"/>
	</g>
	
		<linearGradient id="SVGID_6_" gradientUnits="userSpaceOnUse" x1="137.9575" y1="-1984.3885" x2="400.3124" y2="-1984.3885" gradientTransform="matrix(1 0 0 -1 0 -1915.5173)">
		<stop  offset="0" style="stop-color:#ED1C24"/>
		<stop  offset="1" style="stop-color:#FF00FF"/>
	</linearGradient>
	<path class="st19" d="M372.6,59c0.3-0.3,0.6-0.6,0.9-0.9h26.8v-4.8h-8.5c5.8-6.1,8.3-9.8,8.3-14.9c0-4.4-1.6-8.1-4.5-10.8
		c-3-2.7-7-4.1-11.7-4.1c-7.6,0-13.3,3.4-16.1,9.2c-9.7-10.8-23.6-17-39.2-17c-14.4,0-27.7,5.4-37.3,14.9
		c-6.6-6.8-15-11.2-24.4-13.4c-1.9-0.6-4.1-0.9-6.2-1.2v29.6c2.2,0.6,4.3,1.6,6.2,2.9c6,4.2,9.1,11.4,9.5,18.7c0,0.5,0,1.1,0,1.6
		c0,0.5,0,1,0,1.6c-0.6,11.1-7.7,22.5-22.3,22.5c-14.2,0-21.2-10.8-22.1-21.6c-0.1-0.8-0.1-1.7-0.1-2.5c0-0.8,0-1.7,0.1-2.5
		c0.6-7,3.7-13.9,9.6-17.9c1.8-1.4,3.9-2.4,6.2-3v-6.3c-2.1,0.4-4.2,1.1-6.2,2.1c-5.1,2.5-9,6.3-11.7,11c-1.8-6.5-4.7-12.3-8.6-17.2
		c5.4-5.5,12.3-9.4,20.3-11.5c1.9-0.4,4-0.9,6.2-1V16c-2.2,0.3-4.3,0.6-6.2,1c-9.4,2.1-17.8,6.7-24.4,13.3
		c-9.7-9.2-23.8-14.4-41.1-14.4h-38v83h38c12.9,0,22.9-5.3,28-14.4c1.8,6.6,4.8,12.7,9,18.1c-8.5,8.3-21.1,12.8-37,12.8h-38v6.4h38
		c17.4,0,31.5-5.1,41.2-14.4c9.5,9.5,22.7,14.6,36.9,14.6c14.6,0,27.7-5.2,37.3-14.9c9.5,9.7,22.8,15,37.2,15
		c16.6,0,31.6-7.2,41.2-19.6c0.2-0.2,0.3-0.4,0.4-0.6l1.9-2.5l-5.1-3.4c-1.2,1.6-2.5,3.2-3.8,4.7v0.1c-5.3,6.1-12.3,10.5-20,12.8
		c-4.7,1.4-9.6,2.1-14.6,2.1c-13.4,0-24.9-5-33.1-13.4c4-5.2,6.9-11.1,8.6-17.4c4.5,8.2,12.8,14.3,24.5,14.3c3.2,0,6.3-0.6,9.3-1.5
		c3.8-1.2,7.2-3.2,10.1-6l0.6-0.6c1.5-1.4,2.8-3,4-4.7l-5.3-3.5l-0.3,0.3l-1.5,2.1c-0.1,0.3-0.4,0.4-0.6,0.7
		c-2.5,2.8-5.6,4.9-9.1,5.9c-2.3,0.8-4.8,1.2-7.2,1.2c-15.3,0-22.2-12.6-22.2-24.3s6.9-24.1,22.2-24.1c9,0,14.1,4.1,16.9,7.6
		l1.8,2.2l21.5-14.1l12.6,3l0.1-2.9v0c0-1.6,0.9-1.6,1.3-1.6c0.7,0,1.1,0.3,1.1,1c0,0.1-0.3,1.4-4.8,6c-4,4.2-8.7,8.7-11.2,11.1
		l-0.7,0.7v11.1h33.2V64h-28.5v-4.3C372.1,59.5,372.3,59.2,372.6,59z M266.8,41.3V23.5c8,2.1,14.9,6.1,20.4,11.8
		c-3.9,5.2-6.9,11.1-8.7,17.4C275.9,47.9,272,43.8,266.8,41.3z M176,92.6h-7.1V45.3h7.1c15.9,0,25.4,8.8,25.4,23.5
		C201.4,83.6,191.9,92.6,176,92.6L176,92.6z M348.4,46.3c-5-5-11.9-7.8-19.9-7.8c-11.7,0-20,6-24.5,14.2c-2.4,4.4-3.7,9.4-4,14.5
		c0,0.6,0,1.1,0,1.7s0,1.1,0,1.6c-0.3,10.4-3.4,19.6-8.7,27c-1.2,1.7-2.6,3.4-4.1,4.9c-8.2,8.4-19.7,13.4-33.2,13.4
		c-13.2,0-24.6-4.8-32.7-13c-1.5-1.5-2.9-3.2-4.2-4.9c-5.7-7.8-9.2-17.7-9.2-29c0-5.9-1.5-11.3-4-15.7c-5.1-9-15-14.3-28-14.3h-13.6
		v53.6h-18V22.3H176c15.8,0,28.4,4.5,36.9,12.8c1.5,1.5,2.9,3.1,4.2,4.7c5.2,7,8.2,16,8.5,26.7c0,0.7,0,1.5,0,2.2c0,0.8,0,1.5,0,2.3
		c0.3,5.1,1.8,10,4.3,14.4c4.6,7.9,12.7,13.7,24.2,13.7c11.7,0,20-6,24.5-14.3c2.4-4.4,3.8-9.4,4-14.4c0-0.6,0-1.1,0-1.7
		s0-1.1,0-1.6c0.3-10.4,3.4-19.6,8.8-27c1.2-1.7,2.6-3.3,4.1-4.9c8.2-8.4,19.8-13.4,33.2-13.4c14,0,26,5.3,34.6,14.9L348.4,46.3z
		 M382.4,49.2c4.1-4.3,6.1-6.9,6.1-9.3c0-3.3-2.4-5.8-5.8-5.8c-2.5,0-4.5,1.3-5.4,3.4l-5.8-1.4c1-3,2.8-5.2,5.5-6.5
		c2.6-1.3,5.4-1.5,6.8-1.5c3.5,0,6.5,1,8.5,2.8c2,1.8,3.1,4.4,3.1,7.4c0,4.4-3.1,7.8-10.2,14.9h-6.8
		C379.8,51.9,381.1,50.6,382.4,49.2L382.4,49.2z"/>
</g>
<g id="Einstellungen">
</g>
</svg>
